<svg xmlns="http://www.w3.org/2000/svg" width="800" height="600" viewBox="0 0 800 600"><rect width="100%" height="100%" fill="#01392c"/><path fill="#FFFFFF" d="M165.715 296.565h4.42q1.63 0 2.84-.4 1.21-.41 2.01-1.17t1.2-1.85q.39-1.09.39-2.43 0-1.28-.39-2.31-.4-1.03-1.19-1.76t-2-1.11q-1.21-.39-2.86-.39h-4.42zm-5.92-15.99h10.34q3.19 0 5.52.75 2.33.74 3.85 2.09 1.52 1.34 2.25 3.21.74 1.87.74 4.09 0 2.31-.77 4.24-.77 1.92-2.31 3.31-1.54 1.38-3.86 2.15t-5.42.77h-4.42v11.2h-5.92zm26.44-.88h5.44v32.69h-5.44zm22.79 26.86v-3.81q-2.35.11-3.96.41-1.6.3-2.57.76t-1.39 1.08q-.41.61-.41 1.34 0 1.43.84 2.05.85.61 2.21.61 1.68 0 2.9-.6 1.22-.61 2.38-1.84m-11.48-11.86-.97-1.74q3.9-3.56 9.37-3.56 1.98 0 3.55.65 1.56.65 2.64 1.8 1.07 1.16 1.63 2.76.57 1.61.57 3.52v14.26h-2.47q-.77 0-1.19-.23-.41-.23-.66-.94l-.48-1.62q-.86.77-1.67 1.35-.82.58-1.7.98-.88.39-1.88.6t-2.21.21q-1.43 0-2.64-.38-1.21-.39-2.09-1.16t-1.36-1.91q-.49-1.15-.49-2.66 0-.86.29-1.71t.93-1.62q.65-.77 1.69-1.45 1.03-.68 2.54-1.19 1.51-.5 3.51-.82t4.57-.39v-1.32q0-2.26-.96-3.35-.97-1.09-2.8-1.09-1.32 0-2.19.31t-1.53.69q-.66.39-1.2.69-.53.31-1.19.31-.58 0-.97-.29-.4-.3-.64-.7m26.6-3.89.37 1.78q.68-.68 1.44-1.26.76-.59 1.61-.99.85-.41 1.81-.64.97-.23 2.12-.23 1.84 0 3.27.62 1.43.63 2.39 1.76.96 1.14 1.45 2.71.5 1.57.5 3.46v14.37h-5.44v-14.37q0-2.06-.94-3.2-.95-1.13-2.88-1.13-1.41 0-2.64.64-1.24.64-2.34 1.74v16.32h-5.43v-22.57h3.32q1.06 0 1.39.99m24.4 7.7h10.25q0-1.06-.3-1.99-.3-.94-.89-1.64-.59-.71-1.51-1.11-.91-.41-2.12-.41-2.35 0-3.71 1.34-1.35 1.34-1.72 3.81m13.86 3.28h-13.97q.13 1.73.61 3 .49 1.26 1.28 2.09.79.82 1.88 1.23t2.41.41 2.27-.31q.96-.31 1.68-.68.71-.38 1.25-.68.54-.31 1.05-.31.68 0 1.01.5l1.56 1.98q-.9 1.06-2.02 1.78-1.13.71-2.35 1.14t-2.48.6q-1.27.18-2.46.18-2.35 0-4.37-.78-2.03-.78-3.52-2.31-1.5-1.53-2.36-3.78-.86-2.26-.86-5.23 0-2.31.75-4.34.75-2.04 2.15-3.55 1.39-1.5 3.41-2.38 2.01-.88 4.54-.88 2.13 0 3.94.68 1.8.68 3.1 1.99t2.03 3.21q.74 1.9.74 4.35 0 1.23-.26 1.66-.27.43-1.01.43m5.52-11.97h5.45v23.34q0 1.47-.38 2.77-.39 1.3-1.23 2.28-.85.98-2.23 1.54-1.37.56-3.35.56-.77 0-1.43-.1t-1.36-.32l.19-2.92q.07-.44.36-.57.28-.12 1.1-.12.81 0 1.37-.16.56-.17.89-.53t.47-.96q.15-.59.15-1.47zm6.2-6.58q0 .7-.28 1.32-.29.62-.76 1.08-.48.46-1.13.74-.64.27-1.37.27-.7 0-1.32-.27-.62-.28-1.08-.74t-.74-1.08q-.27-.62-.27-1.32 0-.73.27-1.36.28-.64.74-1.1.46-.47 1.08-.74.62-.28 1.32-.28.73 0 1.37.28.65.27 1.13.74.47.46.76 1.1.28.63.28 1.36m16.72 23.32v-3.81q-2.35.11-3.96.41-1.6.3-2.57.76t-1.39 1.08q-.42.61-.42 1.34 0 1.43.85 2.05.85.61 2.21.61 1.67 0 2.89-.6 1.23-.61 2.39-1.84m-11.48-11.86-.97-1.74q3.89-3.56 9.37-3.56 1.98 0 3.54.65 1.57.65 2.64 1.8 1.08 1.16 1.64 2.76.56 1.61.56 3.52v14.26h-2.46q-.77 0-1.19-.23t-.66-.94l-.48-1.62q-.86.77-1.67 1.35-.82.58-1.7.98-.88.39-1.88.6t-2.21.21q-1.43 0-2.64-.38-1.21-.39-2.09-1.16t-1.36-1.91q-.49-1.15-.49-2.66 0-.86.29-1.71.28-.85.93-1.62t1.69-1.45q1.03-.68 2.54-1.19 1.5-.5 3.51-.82 2-.32 4.57-.39v-1.32q0-2.26-.97-3.35-.96-1.09-2.79-1.09-1.32 0-2.19.31t-1.53.69q-.66.39-1.2.69-.54.31-1.2.31-.57 0-.96-.29-.4-.3-.64-.7m27.32 17.69h-5.43v-22.57h3.32q1.06 0 1.39.99l.35 1.67q.59-.66 1.24-1.21t1.39-.95q.73-.39 1.58-.62t1.86-.23q2.13 0 3.51 1.15 1.37 1.16 2.06 3.07.52-1.12 1.32-1.93.79-.8 1.73-1.3.95-.51 2.02-.75 1.06-.24 2.14-.24 1.87 0 3.32.57 1.46.57 2.45 1.67t1.5 2.68q.52 1.59.52 3.63v14.37h-5.43v-14.37q0-2.15-.95-3.24t-2.77-1.09q-.84 0-1.55.29-.72.28-1.26.82t-.84 1.35q-.31.82-.31 1.87v14.37h-5.46v-14.37q0-2.26-.91-3.3-.91-1.03-2.67-1.03-1.19 0-2.22.58-1.02.59-1.9 1.6zm35.71-13.88h10.25q0-1.06-.3-1.99-.29-.94-.89-1.64-.59-.71-1.51-1.11-.91-.41-2.12-.41-2.35 0-3.71 1.34-1.35 1.34-1.72 3.81m13.86 3.28h-13.97q.13 1.73.61 3 .49 1.26 1.28 2.09.79.82 1.88 1.23t2.41.41 2.28-.31q.95-.31 1.67-.68.71-.38 1.25-.68.54-.31 1.05-.31.68 0 1.01.5l1.56 1.98q-.9 1.06-2.02 1.78-1.12.71-2.35 1.14-1.22.43-2.48.6-1.27.18-2.45.18-2.36 0-4.38-.78-2.03-.78-3.52-2.31-1.5-1.53-2.36-3.78-.85-2.26-.85-5.23 0-2.31.74-4.34.75-2.04 2.15-3.55 1.4-1.5 3.41-2.38t4.54-.88q2.14 0 3.94.68t3.1 1.99 2.04 3.21q.73 1.9.73 4.35 0 1.23-.26 1.66t-1.01.43m10.05-10.98.38 1.78q.68-.68 1.44-1.26.76-.59 1.6-.99.85-.41 1.82-.64t2.11-.23q1.85 0 3.28.62 1.43.63 2.38 1.76.96 1.14 1.46 2.71.49 1.57.49 3.46v14.37h-5.43v-14.37q0-2.06-.95-3.2-.94-1.13-2.88-1.13-1.41 0-2.64.64t-2.33 1.74v16.32h-5.44v-22.57h3.33q1.05 0 1.38.99m27.63 21.93q-2.94 0-4.52-1.66-1.57-1.66-1.57-4.59v-12.6h-2.31q-.44 0-.75-.29-.31-.28-.31-.86v-2.15l3.63-.6 1.15-6.16q.11-.44.42-.68.3-.24.79-.24h2.81v7.11h6.03v3.87h-6.03v12.23q0 1.06.52 1.65t1.42.59q.51 0 .85-.12t.59-.25.45-.25.4-.12q.24 0 .39.12.16.12.33.36l1.63 2.64q-1.19.99-2.73 1.5-1.54.5-3.19.5m18.84-23.27q2.5 0 4.56.81t3.52 2.31 2.26 3.65q.79 2.16.79 4.82 0 2.68-.79 4.84-.8 2.16-2.26 3.67-1.46 1.52-3.52 2.34-2.06.81-4.56.81-2.53 0-4.6-.81-2.07-.82-3.53-2.34-1.47-1.51-2.27-3.67t-.8-4.84q0-2.66.8-4.82.8-2.15 2.27-3.65 1.46-1.5 3.53-2.31t4.6-.81m0 19.07q2.81 0 4.16-1.89 1.36-1.89 1.36-5.55 0-3.65-1.36-5.56-1.35-1.92-4.16-1.92-2.86 0-4.24 1.93-1.37 1.92-1.37 5.55t1.37 5.54q1.38 1.9 4.24 1.9m46.9-23.25h-14.12v9.41h11.92v4.73h-11.92v12.96h-5.94v-31.81h20.06zm4.16 4.53h5.45v22.57h-5.45zm6.2-6.58q0 .7-.28 1.32-.29.62-.76 1.08-.48.46-1.11.74-.64.27-1.37.27-.7 0-1.33-.27-.63-.28-1.09-.74t-.74-1.08q-.27-.62-.27-1.32 0-.73.27-1.36.28-.64.74-1.1.46-.47 1.09-.74.63-.28 1.33-.28.73 0 1.37.28.63.27 1.11.74.47.46.76 1.1.28.63.28 1.36m9.51 7.57.37 1.78q.68-.68 1.44-1.26.76-.59 1.61-.99.84-.41 1.81-.64t2.11-.23q1.85 0 3.28.62 1.43.63 2.39 1.76.96 1.14 1.45 2.71.5 1.57.5 3.46v14.37h-5.44v-14.37q0-2.06-.94-3.2-.95-1.13-2.89-1.13-1.4 0-2.64.64-1.23.64-2.33 1.74v16.32h-5.43v-22.57h3.32q1.06 0 1.39.99m32.03 15.75v-3.81q-2.36.11-3.96.41-1.61.3-2.58.76-.96.46-1.38 1.08-.42.61-.42 1.34 0 1.43.85 2.05.84.61 2.21.61 1.67 0 2.89-.6 1.22-.61 2.39-1.84m-11.49-11.86-.96-1.74q3.89-3.56 9.37-3.56 1.98 0 3.54.65t2.64 1.8q1.08 1.16 1.64 2.76.56 1.61.56 3.52v14.26h-2.46q-.77 0-1.19-.23t-.66-.94l-.49-1.62q-.85.77-1.67 1.35-.81.58-1.69.98-.88.39-1.88.6t-2.21.21q-1.43 0-2.64-.38-1.21-.39-2.09-1.16t-1.37-1.91q-.48-1.15-.48-2.66 0-.86.28-1.71.29-.85.94-1.62t1.68-1.45q1.04-.68 2.54-1.19 1.51-.5 3.51-.82t4.58-.39v-1.32q0-2.26-.97-3.35t-2.79-1.09q-1.32 0-2.19.31t-1.53.69q-.66.39-1.2.69-.54.31-1.2.31-.57 0-.97-.29-.39-.3-.64-.7m26.6-3.89.38 1.78q.68-.68 1.44-1.26.76-.59 1.6-.99.85-.41 1.82-.64t2.11-.23q1.85 0 3.28.62 1.43.63 2.38 1.76.96 1.14 1.46 2.71.49 1.57.49 3.46v14.37h-5.43v-14.37q0-2.06-.95-3.2-.94-1.13-2.88-1.13-1.41 0-2.64.64t-2.33 1.74v16.32h-5.44v-22.57h3.33q1.05 0 1.38.99m37.71 1.8-1.43 1.98q-.24.31-.47.49-.23.17-.67.17-.42 0-.82-.25-.39-.25-.94-.57t-1.31-.58q-.76-.25-1.88-.25-1.43 0-2.51.52t-1.8 1.48q-.71.97-1.06 2.35-.35 1.37-.35 3.11 0 1.8.38 3.21.39 1.41 1.11 2.37.73.95 1.76 1.45 1.04.49 2.33.49 1.3 0 2.1-.32.81-.31 1.36-.7.55-.38.95-.7.41-.32.92-.32.66 0 .99.5l1.56 1.98q-.9 1.06-1.96 1.78-1.05.71-2.19 1.14-1.13.43-2.33.6-1.2.18-2.39.18-2.09 0-3.93-.78-1.85-.78-3.24-2.28-1.38-1.49-2.19-3.66-.8-2.17-.8-4.94 0-2.49.71-4.61.72-2.12 2.11-3.67 1.38-1.55 3.43-2.43 2.04-.88 4.71-.88 2.53 0 4.43.81t3.42 2.33m7.9 5.9h10.25q0-1.06-.3-1.99-.29-.94-.89-1.64-.59-.71-1.51-1.11-.91-.41-2.12-.41-2.35 0-3.71 1.34-1.35 1.34-1.72 3.81m13.86 3.28h-13.97q.13 1.73.61 3 .49 1.26 1.28 2.09.79.82 1.88 1.23t2.41.41 2.28-.31q.95-.31 1.67-.68.71-.38 1.25-.68.54-.31 1.05-.31.68 0 1.01.5l1.56 1.98q-.9 1.06-2.02 1.78-1.12.71-2.35 1.14-1.22.43-2.48.6-1.27.18-2.45.18-2.36 0-4.38-.78-2.03-.78-3.52-2.31-1.5-1.53-2.36-3.78-.85-2.26-.85-5.23 0-2.31.74-4.34.75-2.04 2.15-3.55 1.4-1.5 3.41-2.38t4.54-.88q2.14 0 3.94.68t3.1 1.99 2.04 3.21q.73 1.9.73 4.35 0 1.23-.26 1.66t-1.01.43m5.52-11.97h5.46v22.57h-5.46zm6.2-6.58q0 .7-.28 1.32-.29.62-.76 1.08t-1.11.74q-.64.27-1.37.27-.7 0-1.33-.27-.62-.28-1.09-.74-.46-.46-.73-1.08-.28-.62-.28-1.32 0-.73.28-1.36.27-.64.73-1.1.47-.47 1.09-.74.63-.28 1.33-.28.73 0 1.37.28.64.27 1.11.74.47.46.76 1.1.28.63.28 1.36m9.6 7.94.33 2.55q1.05-2.02 2.5-3.17 1.46-1.16 3.44-1.16 1.56 0 2.5.68l-.35 4.07q-.11.4-.32.56-.21.17-.56.17-.33 0-.98-.11t-1.26-.11q-.9 0-1.61.26-.7.27-1.26.76-.56.5-.99 1.2t-.81 1.61v13.9h-5.43v-22.57h3.19q.84 0 1.17.3.33.29.44 1.06m21.6-1.71q2.51 0 4.56.81 2.06.81 3.52 2.31 1.47 1.5 2.26 3.65.79 2.16.79 4.82 0 2.68-.79 4.84t-2.26 3.67q-1.46 1.52-3.52 2.34-2.05.81-4.56.81-2.53 0-4.6-.81-2.07-.82-3.53-2.34-1.46-1.51-2.27-3.67-.8-2.16-.8-4.84 0-2.66.8-4.82.81-2.15 2.27-3.65t3.53-2.31 4.6-.81m0 19.07q2.82 0 4.17-1.89t1.35-5.55q0-3.65-1.35-5.56-1.35-1.92-4.17-1.92-2.86 0-4.24 1.93-1.37 1.92-1.37 5.55t1.37 5.54q1.38 1.9 4.24 1.9"/></svg>